<?xml version="1.0" encoding="UTF-8" standalone="no"?>
<svg
   fill="#fff"
   viewBox="0 0 640 640"
   version="1.1"
   id="svg4"
   sodipodi:docname="check-mark.svg"
   inkscape:version="1.2.2 (732a01da63, 2022-12-09)"
   xmlns:inkscape="http://www.inkscape.org/namespaces/inkscape"
   xmlns:sodipodi="http://sodipodi.sourceforge.net/DTD/sodipodi-0.dtd"
   xmlns="http://www.w3.org/2000/svg"
   xmlns:svg="http://www.w3.org/2000/svg">
  <defs
     id="defs8" />
  <sodipodi:namedview
     id="namedview6"
     pagecolor="#505050"
     bordercolor="#ffffff"
     borderopacity="1"
     inkscape:showpageshadow="0"
     inkscape:pageopacity="0"
     inkscape:pagecheckerboard="1"
     inkscape:deskcolor="#505050"
     showgrid="false"
     inkscape:zoom="1.065625"
     inkscape:cx="233.19648"
     inkscape:cy="320.93842"
     inkscape:window-width="1600"
     inkscape:window-height="837"
     inkscape:window-x="1272"
     inkscape:window-y="55"
     inkscape:window-maximized="1"
     inkscape:current-layer="svg4" />
  <path
     d="M530.8 134.1C545.1 144.5 548.3 164.5 537.9 178.8L281.9 530.8C276.4 538.4 267.9 543.1 258.5 543.9C249.1 544.7 240 541.2 233.4 534.6L105.4 406.6C92.9 394.1 92.9 373.8 105.4 361.3C117.9 348.8 138.2 348.8 150.7 361.3L252.2 462.8L486.2 141.1C496.6 126.8 516.6 123.6 530.9 134z"
     id="path2" />
  <path
     d="m 530.8,108.1 c 14.3,10.4 17.5,30.4 7.1,44.7 l -256,352 c -5.5,7.6 -14,12.3 -23.4,13.1 -9.4,0.8 -18.5,-2.7 -25.1,-9.3 l -128,-128 c -12.5,-12.5 -12.5,-32.8 0,-45.3 12.5,-12.5 32.8,-12.5 45.3,0 l 101.5,101.5 234,-321.7 c 10.4,-14.3 30.4,-17.5 44.7,-7.1 z"
     id="path241" />
  <path
     d="m 532.8,138.1 c 14.3,10.4 17.5,30.4 7.1,44.7 l -256,352 c -5.5,7.6 -14,12.3 -23.4,13.1 -9.4,0.8 -18.5,-2.7 -25.1,-9.3 l -128,-128 c -12.5,-12.5 -12.5,-32.8 0,-45.3 12.5,-12.5 32.8,-12.5 45.3,0 l 101.5,101.5 234,-321.7 c 10.4,-14.3 30.4,-17.5 44.7,-7.1 z"
     id="path298" />
</svg>
