<?xml version="1.0" encoding="UTF-8" standalone="no"?>
<svg
   fill="#fff"
   viewBox="0 0 640 640"
   version="1.1"
   id="svg4"
   sodipodi:docname="chevron.svg"
   inkscape:version="1.2.2 (732a01da63, 2022-12-09)"
   xmlns:inkscape="http://www.inkscape.org/namespaces/inkscape"
   xmlns:sodipodi="http://sodipodi.sourceforge.net/DTD/sodipodi-0.dtd"
   xmlns="http://www.w3.org/2000/svg"
   xmlns:svg="http://www.w3.org/2000/svg">
  <defs
     id="defs8" />
  <sodipodi:namedview
     id="namedview6"
     pagecolor="#505050"
     bordercolor="#ffffff"
     borderopacity="1"
     inkscape:showpageshadow="0"
     inkscape:pageopacity="0"
     inkscape:pagecheckerboard="1"
     inkscape:deskcolor="#505050"
     showgrid="false"
     inkscape:zoom="0.5328125"
     inkscape:cx="291.84751"
     inkscape:cy="508.6217"
     inkscape:window-width="1600"
     inkscape:window-height="837"
     inkscape:window-x="1272"
     inkscape:window-y="55"
     inkscape:window-maximized="1"
     inkscape:current-layer="svg4" />
  <path
     d="M471.1 297.4C483.6 309.9 483.6 330.2 471.1 342.7L279.1 534.7C266.6 547.2 246.3 547.2 233.8 534.7C221.3 522.2 221.3 501.9 233.8 489.4L403.2 320L233.9 150.6C221.4 138.1 221.4 117.8 233.9 105.3C246.4 92.8 266.7 92.8 279.2 105.3L471.2 297.3z"
     id="path2" />
  <path
     d="m 495.1,295.4 c 12.5,12.5 12.5,32.8 0,45.3 l -192,192 c -12.5,12.5 -32.8,12.5 -45.3,0 -12.5,-12.5 -12.5,-32.8 0,-45.3 L 427.2,318 257.9,148.6 c -12.5,-12.5 -12.5,-32.8 0,-45.3 12.5,-12.5 32.8,-12.5 45.3,0 l 192,192 z"
     id="path387" />
  <path
     d="m 451.1,295.4 c 12.5,12.5 12.5,32.8 0,45.3 l -192,192 c -12.5,12.5 -32.8,12.5 -45.3,0 -12.5,-12.5 -12.5,-32.8 0,-45.3 L 383.2,318 213.9,148.6 c -12.5,-12.5 -12.5,-32.8 0,-45.3 12.5,-12.5 32.8,-12.5 45.3,0 l 192,192 z"
     id="path389" />
</svg>
